{
	"asset":{
		"generator":"Khronos glTF Blender I/O v4.0.44",
		"version":"2.0"
	},
	"extensionsUsed":[
		"KHR_materials_specular",
		"KHR_materials_ior"
	],
	"scene":0,
	"scenes":[
		{
			"name":"Scene",
			"nodes":[
				0
			]
		}
	],
	"nodes":[
		{
			"mesh":0,
			"name":"Cube.009"
		}
	],
	"materials":[
		{
			"doubleSided":true,
			"name":"Material.003",
			"pbrMetallicRoughness":{
				"baseColorFactor":[
					0.8227861523628235,
					0.5088814496994019,
					0.33716362714767456,
					1
				],
				"metallicFactor":0,
				"roughnessFactor":0.5
			}
		},
		{
			"doubleSided":true,
			"name":"Material.005",
			"pbrMetallicRoughness":{
				"baseColorFactor":[
					0.25294238328933716,
					0.25294238328933716,
					0.25294238328933716,
					1
				],
				"metallicFactor":0,
				"roughnessFactor":0.5
			}
		},
		{
			"doubleSided":true,
			"name":"Material.006",
			"pbrMetallicRoughness":{
				"baseColorFactor":[
					0,
					0.01888882741332054,
					0.8020424842834473,
					1
				],
				"metallicFactor":0,
				"roughnessFactor":0.5
			}
		},
		{
			"doubleSided":true,
			"name":"Material.007",
			"pbrMetallicRoughness":{
				"baseColorFactor":[
					0,
					0,
					0,
					1
				],
				"metallicFactor":0,
				"roughnessFactor":0.5
			}
		},
		{
			"doubleSided":true,
			"name":"Material.002",
			"pbrMetallicRoughness":{
				"baseColorFactor":[
					0.9825541973114014,
					0.9676256775856018,
					0.9976163506507874,
					1
				],
				"metallicFactor":0,
				"roughnessFactor":0.5
			}
		},
		{
			"doubleSided":true,
			"name":"Material.001",
			"pbrMetallicRoughness":{
				"baseColorFactor":[
					0.08353102952241898,
					0.03309212252497673,
					0.00385111547075212,
					1
				],
				"metallicFactor":0,
				"roughnessFactor":0.5
			}
		},
		{
			"doubleSided":true,
			"name":"Material.004",
			"pbrMetallicRoughness":{
				"baseColorFactor":[
					0.22025653719902039,
					0.06033782660961151,
					0.006153753027319908,
					1
				],
				"metallicFactor":0,
				"roughnessFactor":0.5
			}
		},
		{
			"doubleSided":true,
			"name":"Material",
			"pbrMetallicRoughness":{
				"baseColorFactor":[
					0.800000011920929,
					0.800000011920929,
					0.800000011920929,
					1
				],
				"metallicFactor":0,
				"roughnessFactor":0.4000000059604645
			}
		},
		{
			"doubleSided":true,
			"extensions":{
				"KHR_materials_specular":{
					"specularColorFactor":[
						0.9518181681632996,
						0.795193076133728,
						0.7608168125152588
					]
				},
				"KHR_materials_ior":{
					"ior":1.4500000476837158
				}
			},
			"name":"Material.010",
			"pbrMetallicRoughness":{
				"baseColorFactor":[
					0.8000000715255737,
					0.14985816180706024,
					0.0071642352268099785,
					1
				],
				"metallicFactor":0.2181818187236786,
				"roughnessFactor":0.2136363685131073
			}
		},
		{
			"doubleSided":true,
			"extensions":{
				"KHR_materials_specular":{
					"specularFactor":0.6181818246841431
				},
				"KHR_materials_ior":{
					"ior":1.4500000476837158
				}
			},
			"name":"Material.011",
			"pbrMetallicRoughness":{
				"baseColorFactor":[
					0.15412276983261108,
					0.15412276983261108,
					0.15412276983261108,
					1
				],
				"metallicFactor":0.7363636493682861,
				"roughnessFactor":0.09545454382896423
			}
		}
	],
	"meshes":[
		{
			"name":"Cube.011",
			"primitives":[
				{
					"attributes":{
						"POSITION":0,
						"NORMAL":1,
						"TEXCOORD_0":2
					},
					"indices":3,
					"material":0
				},
				{
					"attributes":{
						"POSITION":4,
						"NORMAL":5,
						"TEXCOORD_0":6
					},
					"indices":7,
					"material":1
				},
				{
					"attributes":{
						"POSITION":8,
						"NORMAL":9,
						"TEXCOORD_0":10
					},
					"indices":11,
					"material":2
				},
				{
					"attributes":{
						"POSITION":12,
						"NORMAL":13,
						"TEXCOORD_0":14
					},
					"indices":15,
					"material":3
				},
				{
					"attributes":{
						"POSITION":16,
						"NORMAL":17,
						"TEXCOORD_0":18
					},
					"indices":19,
					"material":4
				},
				{
					"attributes":{
						"POSITION":20,
						"NORMAL":21,
						"TEXCOORD_0":22
					},
					"indices":19,
					"material":5
				},
				{
					"attributes":{
						"POSITION":23,
						"NORMAL":24,
						"TEXCOORD_0":25
					},
					"indices":26,
					"material":6
				},
				{
					"attributes":{
						"POSITION":27,
						"NORMAL":28,
						"TEXCOORD_0":29
					},
					"indices":30,
					"material":7
				},
				{
					"attributes":{
						"POSITION":31,
						"NORMAL":32,
						"TEXCOORD_0":33
					},
					"indices":34,
					"material":8
				},
				{
					"attributes":{
						"POSITION":35,
						"NORMAL":36,
						"TEXCOORD_0":37
					},
					"indices":38,
					"material":9
				}
			]
		}
	],
	"accessors":[
		{
			"bufferView":0,
			"componentType":5126,
			"count":261,
			"max":[
				0.4291745126247406,
				2.4385781288146973,
				-0.31791481375694275
			],
			"min":[
				-0.45153772830963135,
				-0.17705197632312775,
				-0.7968320250511169
			],
			"type":"VEC3"
		},
		{
			"bufferView":1,
			"componentType":5126,
			"count":261,
			"type":"VEC3"
		},
		{
			"bufferView":2,
			"componentType":5126,
			"count":261,
			"type":"VEC2"
		},
		{
			"bufferView":3,
			"componentType":5123,
			"count":528,
			"type":"SCALAR"
		},
		{
			"bufferView":4,
			"componentType":5126,
			"count":182,
			"max":[
				0.4291745126247406,
				1.701568841934204,
				-0.4056044816970825
			],
			"min":[
				-0.44136151671409607,
				0.7116677165031433,
				-0.8577404022216797
			],
			"type":"VEC3"
		},
		{
			"bufferView":5,
			"componentType":5126,
			"count":182,
			"type":"VEC3"
		},
		{
			"bufferView":6,
			"componentType":5126,
			"count":182,
			"type":"VEC2"
		},
		{
			"bufferView":7,
			"componentType":5123,
			"count":336,
			"type":"SCALAR"
		},
		{
			"bufferView":8,
			"componentType":5126,
			"count":264,
			"max":[
				0.2872232496738434,
				0.7267911434173584,
				-0.49332767724990845
			],
			"min":[
				-0.2640436887741089,
				-0.06951761245727539,
				-0.8323980569839478
			],
			"type":"VEC3"
		},
		{
			"bufferView":9,
			"componentType":5126,
			"count":264,
			"type":"VEC3"
		},
		{
			"bufferView":10,
			"componentType":5126,
			"count":264,
			"type":"VEC2"
		},
		{
			"bufferView":11,
			"componentType":5123,
			"count":696,
			"type":"SCALAR"
		},
		{
			"bufferView":12,
			"componentType":5126,
			"count":122,
			"max":[
				0.31503403186798096,
				-0.013538643717765808,
				-0.2966766655445099
			],
			"min":[
				-0.22830313444137573,
				-0.33781829476356506,
				-0.8014283776283264
			],
			"type":"VEC3"
		},
		{
			"bufferView":13,
			"componentType":5126,
			"count":122,
			"type":"VEC3"
		},
		{
			"bufferView":14,
			"componentType":5126,
			"count":122,
			"type":"VEC2"
		},
		{
			"bufferView":15,
			"componentType":5123,
			"count":216,
			"type":"SCALAR"
		},
		{
			"bufferView":16,
			"componentType":5126,
			"count":8,
			"max":[
				0.27365076541900635,
				2.228651762008667,
				-0.31658950448036194
			],
			"min":[
				-0.2702624797821045,
				2.1183793544769287,
				-0.31658950448036194
			],
			"type":"VEC3"
		},
		{
			"bufferView":17,
			"componentType":5126,
			"count":8,
			"type":"VEC3"
		},
		{
			"bufferView":18,
			"componentType":5126,
			"count":8,
			"type":"VEC2"
		},
		{
			"bufferView":19,
			"componentType":5123,
			"count":12,
			"type":"SCALAR"
		},
		{
			"bufferView":20,
			"componentType":5126,
			"count":8,
			"max":[
				0.21255359053611755,
				2.228651762008667,
				-0.31658950448036194
			],
			"min":[
				-0.20905573666095734,
				2.1183793544769287,
				-0.31658950448036194
			],
			"type":"VEC3"
		},
		{
			"bufferView":21,
			"componentType":5126,
			"count":8,
			"type":"VEC3"
		},
		{
			"bufferView":22,
			"componentType":5126,
			"count":8,
			"type":"VEC2"
		},
		{
			"bufferView":23,
			"componentType":5126,
			"count":219,
			"max":[
				0.3580152988433838,
				2.450760841369629,
				-0.31254634261131287
			],
			"min":[
				-0.3592185974121094,
				1.7688589096069336,
				-0.9478124380111694
			],
			"type":"VEC3"
		},
		{
			"bufferView":24,
			"componentType":5126,
			"count":219,
			"type":"VEC3"
		},
		{
			"bufferView":25,
			"componentType":5126,
			"count":219,
			"type":"VEC2"
		},
		{
			"bufferView":26,
			"componentType":5123,
			"count":444,
			"type":"SCALAR"
		},
		{
			"bufferView":27,
			"componentType":5126,
			"count":4,
			"max":[
				0.10349985957145691,
				2.013275146484375,
				-0.3154524266719818
			],
			"min":[
				-0.10083698481321335,
				1.969751000404358,
				-0.31558743119239807
			],
			"type":"VEC3"
		},
		{
			"bufferView":28,
			"componentType":5126,
			"count":4,
			"type":"VEC3"
		},
		{
			"bufferView":29,
			"componentType":5126,
			"count":4,
			"type":"VEC2"
		},
		{
			"bufferView":30,
			"componentType":5123,
			"count":6,
			"type":"SCALAR"
		},
		{
			"bufferView":31,
			"componentType":5126,
			"count":172,
			"max":[
				-0.3627617359161377,
				0.9983377456665039,
				-0.16150379180908203
			],
			"min":[
				-0.4125567674636841,
				0.9511626362800598,
				-0.6732813715934753
			],
			"type":"VEC3"
		},
		{
			"bufferView":32,
			"componentType":5126,
			"count":172,
			"type":"VEC3"
		},
		{
			"bufferView":33,
			"componentType":5126,
			"count":172,
			"type":"VEC2"
		},
		{
			"bufferView":34,
			"componentType":5123,
			"count":360,
			"type":"SCALAR"
		},
		{
			"bufferView":35,
			"componentType":5126,
			"count":144,
			"max":[
				-0.2870335876941681,
				0.9882188439369202,
				0.0026230216026306152
			],
			"min":[
				-0.46637532114982605,
				0.9323424696922302,
				-0.18494218587875366
			],
			"type":"VEC3"
		},
		{
			"bufferView":36,
			"componentType":5126,
			"count":144,
			"type":"VEC3"
		},
		{
			"bufferView":37,
			"componentType":5126,
			"count":144,
			"type":"VEC2"
		},
		{
			"bufferView":38,
			"componentType":5123,
			"count":336,
			"type":"SCALAR"
		}
	],
	"bufferViews":[
		{
			"buffer":0,
			"byteLength":3132,
			"byteOffset":0,
			"target":34962
		},
		{
			"buffer":0,
			"byteLength":3132,
			"byteOffset":3132,
			"target":34962
		},
		{
			"buffer":0,
			"byteLength":2088,
			"byteOffset":6264,
			"target":34962
		},
		{
			"buffer":0,
			"byteLength":1056,
			"byteOffset":8352,
			"target":34963
		},
		{
			"buffer":0,
			"byteLength":2184,
			"byteOffset":9408,
			"target":34962
		},
		{
			"buffer":0,
			"byteLength":2184,
			"byteOffset":11592,
			"target":34962
		},
		{
			"buffer":0,
			"byteLength":1456,
			"byteOffset":13776,
			"target":34962
		},
		{
			"buffer":0,
			"byteLength":672,
			"byteOffset":15232,
			"target":34963
		},
		{
			"buffer":0,
			"byteLength":3168,
			"byteOffset":15904,
			"target":34962
		},
		{
			"buffer":0,
			"byteLength":3168,
			"byteOffset":19072,
			"target":34962
		},
		{
			"buffer":0,
			"byteLength":2112,
			"byteOffset":22240,
			"target":34962
		},
		{
			"buffer":0,
			"byteLength":1392,
			"byteOffset":24352,
			"target":34963
		},
		{
			"buffer":0,
			"byteLength":1464,
			"byteOffset":25744,
			"target":34962
		},
		{
			"buffer":0,
			"byteLength":1464,
			"byteOffset":27208,
			"target":34962
		},
		{
			"buffer":0,
			"byteLength":976,
			"byteOffset":28672,
			"target":34962
		},
		{
			"buffer":0,
			"byteLength":432,
			"byteOffset":29648,
			"target":34963
		},
		{
			"buffer":0,
			"byteLength":96,
			"byteOffset":30080,
			"target":34962
		},
		{
			"buffer":0,
			"byteLength":96,
			"byteOffset":30176,
			"target":34962
		},
		{
			"buffer":0,
			"byteLength":64,
			"byteOffset":30272,
			"target":34962
		},
		{
			"buffer":0,
			"byteLength":24,
			"byteOffset":30336,
			"target":34963
		},
		{
			"buffer":0,
			"byteLength":96,
			"byteOffset":30360,
			"target":34962
		},
		{
			"buffer":0,
			"byteLength":96,
			"byteOffset":30456,
			"target":34962
		},
		{
			"buffer":0,
			"byteLength":64,
			"byteOffset":30552,
			"target":34962
		},
		{
			"buffer":0,
			"byteLength":2628,
			"byteOffset":30616,
			"target":34962
		},
		{
			"buffer":0,
			"byteLength":2628,
			"byteOffset":33244,
			"target":34962
		},
		{
			"buffer":0,
			"byteLength":1752,
			"byteOffset":35872,
			"target":34962
		},
		{
			"buffer":0,
			"byteLength":888,
			"byteOffset":37624,
			"target":34963
		},
		{
			"buffer":0,
			"byteLength":48,
			"byteOffset":38512,
			"target":34962
		},
		{
			"buffer":0,
			"byteLength":48,
			"byteOffset":38560,
			"target":34962
		},
		{
			"buffer":0,
			"byteLength":32,
			"byteOffset":38608,
			"target":34962
		},
		{
			"buffer":0,
			"byteLength":12,
			"byteOffset":38640,
			"target":34963
		},
		{
			"buffer":0,
			"byteLength":2064,
			"byteOffset":38652,
			"target":34962
		},
		{
			"buffer":0,
			"byteLength":2064,
			"byteOffset":40716,
			"target":34962
		},
		{
			"buffer":0,
			"byteLength":1376,
			"byteOffset":42780,
			"target":34962
		},
		{
			"buffer":0,
			"byteLength":720,
			"byteOffset":44156,
			"target":34963
		},
		{
			"buffer":0,
			"byteLength":1728,
			"byteOffset":44876,
			"target":34962
		},
		{
			"buffer":0,
			"byteLength":1728,
			"byteOffset":46604,
			"target":34962
		},
		{
			"buffer":0,
			"byteLength":1152,
			"byteOffset":48332,
			"target":34962
		},
		{
			"buffer":0,
			"byteLength":672,
			"byteOffset":49484,
			"target":34963
		}
	],
	"buffers":[
		{
			"byteLength":50156,
			"uri":"Fred.bin"
		}
	]
}
