{
	"asset":{
		"generator":"Khronos glTF Blender I/O v4.0.44",
		"version":"2.0"
	},
	"scene":0,
	"scenes":[
		{
			"name":"Scene",
			"nodes":[
				0,
				1,
				2,
				3,
				4,
				5,
				6
			]
		}
	],
	"nodes":[
		{
			"mesh":0,
			"name":"Cylinder",
			"rotation":[
				0.5,
				0.5,
				-0.5,
				0.5
			],
			"scale":[
				0.13578248023986816,
				4.004787445068359,
				0.13578248023986816
			]
		},
		{
			"mesh":1,
			"name":"Cube",
			"scale":[
				4.976028919219971,
				0.27803540229797363,
				4.130059719085693
			],
			"translation":[
				0,
				-0.5847289562225342,
				-3.4610414505004883
			]
		},
		{
			"mesh":2,
			"name":"Cube.001",
			"scale":[
				0.10947679728269577,
				0.5596988201141357,
				0.09981603920459747
			],
			"translation":[
				4.834725856781006,
				-0.1451471447944641,
				0.5397847294807434
			]
		},
		{
			"mesh":3,
			"name":"Cube.002",
			"scale":[
				0.10947679728269577,
				0.5596988201141357,
				0.09981603920459747
			],
			"translation":[
				-4.837035179138184,
				-0.1451471447944641,
				0.5397847294807434
			]
		},
		{
			"mesh":4,
			"name":"Cube.003",
			"scale":[
				0.10947679728269577,
				0.5596988201141357,
				0.09981603920459747
			],
			"translation":[
				-4.837035179138184,
				-0.1451471447944641,
				-7.446579456329346
			]
		},
		{
			"mesh":5,
			"name":"Cube.004",
			"scale":[
				0.10947679728269577,
				0.5596988201141357,
				0.09981603920459747
			],
			"translation":[
				4.8286333084106445,
				-0.1451471447944641,
				-7.446579456329346
			]
		},
		{
			"mesh":6,
			"name":"Cube.005",
			"scale":[
				4.976028919219971,
				0.12725430727005005,
				4.130059719085693
			],
			"translation":[
				0,
				0.49970924854278564,
				-3.4610414505004883
			]
		}
	],
	"materials":[
		{
			"doubleSided":true,
			"name":"Material.001",
			"pbrMetallicRoughness":{
				"baseColorFactor":[
					0.7501010894775391,
					0.08422963321208954,
					0.012885111384093761,
					0.1454545259475708
				],
				"roughnessFactor":0
			}
		},
		{
			"doubleSided":true,
			"name":"Material.004",
			"pbrMetallicRoughness":{
				"baseColorFactor":[
					0,
					0,
					0,
					1
				],
				"metallicFactor":0,
				"roughnessFactor":0.5
			}
		},
		{
			"doubleSided":true,
			"name":"Material.003",
			"pbrMetallicRoughness":{
				"baseColorFactor":[
					0.2603440284729004,
					0.04370782896876335,
					0.0005083971191197634,
					1
				],
				"metallicFactor":0.44090908765792847,
				"roughnessFactor":0.3636363744735718
			}
		},
		{
			"doubleSided":true,
			"name":"Material.002",
			"pbrMetallicRoughness":{
				"baseColorFactor":[
					0.03923753276467323,
					0.03754337131977081,
					0.03680622950196266,
					1
				],
				"metallicFactor":0.5909090638160706,
				"roughnessFactor":0.2909091114997864
			}
		}
	],
	"meshes":[
		{
			"name":"Cylinder",
			"primitives":[
				{
					"attributes":{
						"POSITION":0,
						"NORMAL":1,
						"TEXCOORD_0":2
					},
					"indices":3,
					"material":0
				}
			]
		},
		{
			"name":"Cube.002",
			"primitives":[
				{
					"attributes":{
						"POSITION":4,
						"NORMAL":5,
						"TEXCOORD_0":6
					},
					"indices":7,
					"material":1
				}
			]
		},
		{
			"name":"Cube.003",
			"primitives":[
				{
					"attributes":{
						"POSITION":8,
						"NORMAL":9,
						"TEXCOORD_0":10
					},
					"indices":7,
					"material":2
				}
			]
		},
		{
			"name":"Cube.004",
			"primitives":[
				{
					"attributes":{
						"POSITION":11,
						"NORMAL":12,
						"TEXCOORD_0":13
					},
					"indices":7,
					"material":2
				}
			]
		},
		{
			"name":"Cube.005",
			"primitives":[
				{
					"attributes":{
						"POSITION":14,
						"NORMAL":15,
						"TEXCOORD_0":16
					},
					"indices":7,
					"material":2
				}
			]
		},
		{
			"name":"Cube.006",
			"primitives":[
				{
					"attributes":{
						"POSITION":17,
						"NORMAL":18,
						"TEXCOORD_0":19
					},
					"indices":7,
					"material":2
				}
			]
		},
		{
			"name":"Cube.007",
			"primitives":[
				{
					"attributes":{
						"POSITION":20,
						"NORMAL":21,
						"TEXCOORD_0":22
					},
					"indices":7,
					"material":3
				}
			]
		}
	],
	"accessors":[
		{
			"bufferView":0,
			"componentType":5126,
			"count":7624,
			"max":[
				52.329734802246094,
				1.1937165260314941,
				4.274867534637451
			],
			"min":[
				-1.0000019073486328,
				-1.1335288286209106,
				-1.0290696620941162
			],
			"type":"VEC3"
		},
		{
			"bufferView":1,
			"componentType":5126,
			"count":7624,
			"type":"VEC3"
		},
		{
			"bufferView":2,
			"componentType":5126,
			"count":7624,
			"type":"VEC2"
		},
		{
			"bufferView":3,
			"componentType":5123,
			"count":38208,
			"type":"SCALAR"
		},
		{
			"bufferView":4,
			"componentType":5126,
			"count":24,
			"max":[
				1,
				1,
				1
			],
			"min":[
				-1,
				-1,
				-1
			],
			"type":"VEC3"
		},
		{
			"bufferView":5,
			"componentType":5126,
			"count":24,
			"type":"VEC3"
		},
		{
			"bufferView":6,
			"componentType":5126,
			"count":24,
			"type":"VEC2"
		},
		{
			"bufferView":7,
			"componentType":5123,
			"count":36,
			"type":"SCALAR"
		},
		{
			"bufferView":8,
			"componentType":5126,
			"count":24,
			"max":[
				1,
				1,
				1
			],
			"min":[
				-1,
				-1,
				-1
			],
			"type":"VEC3"
		},
		{
			"bufferView":9,
			"componentType":5126,
			"count":24,
			"type":"VEC3"
		},
		{
			"bufferView":10,
			"componentType":5126,
			"count":24,
			"type":"VEC2"
		},
		{
			"bufferView":11,
			"componentType":5126,
			"count":24,
			"max":[
				1,
				1,
				1
			],
			"min":[
				-1,
				-1,
				-1
			],
			"type":"VEC3"
		},
		{
			"bufferView":12,
			"componentType":5126,
			"count":24,
			"type":"VEC3"
		},
		{
			"bufferView":13,
			"componentType":5126,
			"count":24,
			"type":"VEC2"
		},
		{
			"bufferView":14,
			"componentType":5126,
			"count":24,
			"max":[
				1,
				1,
				1
			],
			"min":[
				-1,
				-1,
				-1
			],
			"type":"VEC3"
		},
		{
			"bufferView":15,
			"componentType":5126,
			"count":24,
			"type":"VEC3"
		},
		{
			"bufferView":16,
			"componentType":5126,
			"count":24,
			"type":"VEC2"
		},
		{
			"bufferView":17,
			"componentType":5126,
			"count":24,
			"max":[
				1,
				1,
				1
			],
			"min":[
				-1,
				-1,
				-1
			],
			"type":"VEC3"
		},
		{
			"bufferView":18,
			"componentType":5126,
			"count":24,
			"type":"VEC3"
		},
		{
			"bufferView":19,
			"componentType":5126,
			"count":24,
			"type":"VEC2"
		},
		{
			"bufferView":20,
			"componentType":5126,
			"count":24,
			"max":[
				1,
				1,
				1
			],
			"min":[
				-1,
				-1,
				-1
			],
			"type":"VEC3"
		},
		{
			"bufferView":21,
			"componentType":5126,
			"count":24,
			"type":"VEC3"
		},
		{
			"bufferView":22,
			"componentType":5126,
			"count":24,
			"type":"VEC2"
		}
	],
	"bufferViews":[
		{
			"buffer":0,
			"byteLength":91488,
			"byteOffset":0,
			"target":34962
		},
		{
			"buffer":0,
			"byteLength":91488,
			"byteOffset":91488,
			"target":34962
		},
		{
			"buffer":0,
			"byteLength":60992,
			"byteOffset":182976,
			"target":34962
		},
		{
			"buffer":0,
			"byteLength":76416,
			"byteOffset":243968,
			"target":34963
		},
		{
			"buffer":0,
			"byteLength":288,
			"byteOffset":320384,
			"target":34962
		},
		{
			"buffer":0,
			"byteLength":288,
			"byteOffset":320672,
			"target":34962
		},
		{
			"buffer":0,
			"byteLength":192,
			"byteOffset":320960,
			"target":34962
		},
		{
			"buffer":0,
			"byteLength":72,
			"byteOffset":321152,
			"target":34963
		},
		{
			"buffer":0,
			"byteLength":288,
			"byteOffset":321224,
			"target":34962
		},
		{
			"buffer":0,
			"byteLength":288,
			"byteOffset":321512,
			"target":34962
		},
		{
			"buffer":0,
			"byteLength":192,
			"byteOffset":321800,
			"target":34962
		},
		{
			"buffer":0,
			"byteLength":288,
			"byteOffset":321992,
			"target":34962
		},
		{
			"buffer":0,
			"byteLength":288,
			"byteOffset":322280,
			"target":34962
		},
		{
			"buffer":0,
			"byteLength":192,
			"byteOffset":322568,
			"target":34962
		},
		{
			"buffer":0,
			"byteLength":288,
			"byteOffset":322760,
			"target":34962
		},
		{
			"buffer":0,
			"byteLength":288,
			"byteOffset":323048,
			"target":34962
		},
		{
			"buffer":0,
			"byteLength":192,
			"byteOffset":323336,
			"target":34962
		},
		{
			"buffer":0,
			"byteLength":288,
			"byteOffset":323528,
			"target":34962
		},
		{
			"buffer":0,
			"byteLength":288,
			"byteOffset":323816,
			"target":34962
		},
		{
			"buffer":0,
			"byteLength":192,
			"byteOffset":324104,
			"target":34962
		},
		{
			"buffer":0,
			"byteLength":288,
			"byteOffset":324296,
			"target":34962
		},
		{
			"buffer":0,
			"byteLength":288,
			"byteOffset":324584,
			"target":34962
		},
		{
			"buffer":0,
			"byteLength":192,
			"byteOffset":324872,
			"target":34962
		}
	],
	"buffers":[
		{
			"byteLength":325064,
			"uri":"grillPlaat.bin"
		}
	]
}
