{
	"asset":{
		"generator":"Khronos glTF Blender I/O v4.0.44",
		"version":"2.0"
	},
	"extensionsUsed":[
		"KHR_texture_transform"
	],
	"extensionsRequired":[
		"KHR_texture_transform"
	],
	"scene":0,
	"scenes":[
		{
			"name":"Scene",
			"nodes":[
				0
			]
		}
	],
	"nodes":[
		{
			"mesh":0,
			"name":"Cube.005",
			"rotation":[
				0,
				0,
				0.3826832175254822,
				0.9238796234130859
			],
			"scale":[
				0.039107855409383774,
				0.9615839719772339,
				0.017779283225536346
			],
			"translation":[
				2.695546865463257,
				-9.43427848815918,
				-2.1574463844299316
			]
		}
	],
	"materials":[
		{
			"doubleSided":true,
			"name":"Material.002",
			"pbrMetallicRoughness":{
				"baseColorFactor":[
					0.8009624481201172,
					0,
					0,
					0.6377952694892883
				]
			}
		},
		{
			"doubleSided":true,
			"name":"Material.001",
			"pbrMetallicRoughness":{
				"baseColorFactor":[
					0.1936010718345642,
					0.027897315099835396,
					0.0030831750482320786,
					0.6377952694892883
				]
			}
		},
		{
			"doubleSided":true,
			"name":"medieval_wood",
			"normalTexture":{
				"extensions":{
					"KHR_texture_transform":{
						"offset":[
							0,
							-99
						],
						"scale":[
							100,
							100
						]
					}
				},
				"index":0,
				"scale":9.999999046325684
			},
			"pbrMetallicRoughness":{
				"baseColorTexture":{
					"extensions":{
						"KHR_texture_transform":{
							"offset":[
								0,
								-99
							],
							"scale":[
								100,
								100
							]
						}
					},
					"index":1
				},
				"metallicFactor":0,
				"metallicRoughnessTexture":{
					"extensions":{
						"KHR_texture_transform":{
							"offset":[
								0,
								-99
							],
							"scale":[
								100,
								100
							]
						}
					},
					"index":2
				}
			}
		}
	],
	"meshes":[
		{
			"name":"Cube.009",
			"primitives":[
				{
					"attributes":{
						"POSITION":0,
						"NORMAL":1,
						"TEXCOORD_0":2
					},
					"indices":3,
					"material":0
				},
				{
					"attributes":{
						"POSITION":4,
						"NORMAL":5,
						"TEXCOORD_0":6
					},
					"indices":7,
					"material":1
				},
				{
					"attributes":{
						"POSITION":8,
						"NORMAL":9,
						"TEXCOORD_0":10
					},
					"indices":11,
					"material":2
				},
				{
					"attributes":{
						"POSITION":12,
						"NORMAL":13,
						"TEXCOORD_0":14
					},
					"indices":15,
					"material":2
				}
			]
		}
	],
	"textures":[
		{
			"sampler":0,
			"source":0
		},
		{
			"sampler":0,
			"source":1
		},
		{
			"sampler":0,
			"source":2
		}
	],
	"images":[
		{
			"mimeType":"image/png",
			"name":"medieval_wood_Nor_4k",
			"uri":"medieval_wood_Nor_4k.png"
		},
		{
			"mimeType":"image/jpeg",
			"name":"medieval_wood_diff_8k",
			"uri":"medieval_wood_diff_8k.jpg"
		},
		{
			"mimeType":"image/png",
			"name":"medieval_wood_rough_8k",
			"uri":"medieval_wood_rough_8k.png"
		}
	],
	"accessors":[
		{
			"bufferView":0,
			"componentType":5126,
			"count":166,
			"max":[
				5.044541358947754,
				4.175106525421143,
				49.66237258911133
			],
			"min":[
				-8.008964538574219,
				3.644217014312744,
				-14.932042121887207
			],
			"type":"VEC3"
		},
		{
			"bufferView":1,
			"componentType":5126,
			"count":166,
			"type":"VEC3"
		},
		{
			"bufferView":2,
			"componentType":5126,
			"count":166,
			"type":"VEC2"
		},
		{
			"bufferView":3,
			"componentType":5123,
			"count":564,
			"type":"SCALAR"
		},
		{
			"bufferView":4,
			"componentType":5126,
			"count":10319,
			"max":[
				123.28125,
				8.85545825958252,
				233.16744995117188
			],
			"min":[
				-122.73892974853516,
				-1,
				-2.6407201290130615
			],
			"type":"VEC3"
		},
		{
			"bufferView":5,
			"componentType":5126,
			"count":10319,
			"type":"VEC3"
		},
		{
			"bufferView":6,
			"componentType":5126,
			"count":10319,
			"type":"VEC2"
		},
		{
			"bufferView":7,
			"componentType":5123,
			"count":28704,
			"type":"SCALAR"
		},
		{
			"bufferView":8,
			"componentType":5126,
			"count":312,
			"max":[
				121.842529296875,
				8.919743537902832,
				233.16744995117188
			],
			"min":[
				-75.41844177246094,
				0.8970861434936523,
				9.52471923828125
			],
			"type":"VEC3"
		},
		{
			"bufferView":9,
			"componentType":5126,
			"count":312,
			"type":"VEC3"
		},
		{
			"bufferView":10,
			"componentType":5126,
			"count":312,
			"type":"VEC2"
		},
		{
			"bufferView":11,
			"componentType":5123,
			"count":1050,
			"type":"SCALAR"
		},
		{
			"bufferView":12,
			"componentType":5126,
			"count":100,
			"max":[
				164.8770294189453,
				10.669968605041504,
				188.2808380126953
			],
			"min":[
				78.80799865722656,
				7.169520378112793,
				54.41133117675781
			],
			"type":"VEC3"
		},
		{
			"bufferView":13,
			"componentType":5126,
			"count":100,
			"type":"VEC3"
		},
		{
			"bufferView":14,
			"componentType":5126,
			"count":100,
			"type":"VEC2"
		},
		{
			"bufferView":15,
			"componentType":5123,
			"count":282,
			"type":"SCALAR"
		}
	],
	"bufferViews":[
		{
			"buffer":0,
			"byteLength":1992,
			"byteOffset":0,
			"target":34962
		},
		{
			"buffer":0,
			"byteLength":1992,
			"byteOffset":1992,
			"target":34962
		},
		{
			"buffer":0,
			"byteLength":1328,
			"byteOffset":3984,
			"target":34962
		},
		{
			"buffer":0,
			"byteLength":1128,
			"byteOffset":5312,
			"target":34963
		},
		{
			"buffer":0,
			"byteLength":123828,
			"byteOffset":6440,
			"target":34962
		},
		{
			"buffer":0,
			"byteLength":123828,
			"byteOffset":130268,
			"target":34962
		},
		{
			"buffer":0,
			"byteLength":82552,
			"byteOffset":254096,
			"target":34962
		},
		{
			"buffer":0,
			"byteLength":57408,
			"byteOffset":336648,
			"target":34963
		},
		{
			"buffer":0,
			"byteLength":3744,
			"byteOffset":394056,
			"target":34962
		},
		{
			"buffer":0,
			"byteLength":3744,
			"byteOffset":397800,
			"target":34962
		},
		{
			"buffer":0,
			"byteLength":2496,
			"byteOffset":401544,
			"target":34962
		},
		{
			"buffer":0,
			"byteLength":2100,
			"byteOffset":404040,
			"target":34963
		},
		{
			"buffer":0,
			"byteLength":1200,
			"byteOffset":406140,
			"target":34962
		},
		{
			"buffer":0,
			"byteLength":1200,
			"byteOffset":407340,
			"target":34962
		},
		{
			"buffer":0,
			"byteLength":800,
			"byteOffset":408540,
			"target":34962
		},
		{
			"buffer":0,
			"byteLength":564,
			"byteOffset":409340,
			"target":34963
		}
	],
	"samplers":[
		{
			"magFilter":9729,
			"minFilter":9987
		}
	],
	"buffers":[
		{
			"byteLength":409904,
			"uri":"molen.bin"
		}
	]
}
