{
	"asset":{
		"generator":"Khronos glTF Blender I/O v4.0.44",
		"version":"2.0"
	},
	"extensionsUsed":[
		"KHR_materials_clearcoat",
		"KHR_materials_specular",
		"KHR_materials_ior",
		"KHR_texture_transform"
	],
	"extensionsRequired":[
		"KHR_texture_transform"
	],
	"scene":0,
	"scenes":[
		{
			"name":"Scene",
			"nodes":[
				0
			]
		}
	],
	"nodes":[
		{
			"mesh":0,
			"name":"Cylinder.001",
			"rotation":[
				0,
				1,
				0,
				0
			],
			"scale":[
				-0.2,
				-0.46075206,
				-0.2
			]
		}
	],
	"materials":[
		{
			"doubleSided":true,
			"extensions":{
				"KHR_materials_clearcoat":{
					"clearcoatFactor":0.12196969985961914,
					"clearcoatRoughnessFactor":0.029999999329447746
				},
				"KHR_materials_specular":{
					"specularColorFactor":[
						2.0,
						2.0,
						2.0
					]
				},
				"KHR_materials_ior":{
					"ior":1.4500000476837158
				}
			},
			"name":"Granulated white procedural.",
			"pbrMetallicRoughness":{
				"metallicFactor":0
			}
		},
		{
			"doubleSided":true,
			"name":"Old White Metal",
			"normalTexture":{
				"extensions":{
					"KHR_texture_transform":{
						"offset":[
							0,
							-1
						],
						"scale":[
							2,
							2
						]
					}
				},
				"index":0,
				"texCoord":1
			},
			"pbrMetallicRoughness":{
				"baseColorTexture":{
					"extensions":{
						"KHR_texture_transform":{
							"offset":[
								0,
								-1
							],
							"scale":[
								2,
								2
							]
						}
					},
					"index":1,
					"texCoord":1
				},
				"metallicRoughnessTexture":{
					"extensions":{
						"KHR_texture_transform":{
							"offset":[
								0,
								-1
							],
							"scale":[
								2,
								2
							]
						}
					},
					"index":2,
					"texCoord":1
				}
			}
		}
	],
	"meshes":[
		{
			"name":"Cylinder.001",
			"primitives":[
				{
					"attributes":{
						"POSITION":0,
						"NORMAL":1,
						"TEXCOORD_0":2,
						"TEXCOORD_1":3
					},
					"indices":4,
					"material":0
				},
				{
					"attributes":{
						"POSITION":5,
						"NORMAL":6,
						"TEXCOORD_0":7,
						"TEXCOORD_1":8
					},
					"indices":9,
					"material":1
				}
			]
		}
	],
	"textures":[
		{
			"sampler":0,
			"source":0
		},
		{
			"sampler":0,
			"source":1
		},
		{
			"sampler":0,
			"source":2
		}
	],
	"images":[
		{
			"mimeType":"image/jpeg",
			"name":"WhiteMetal_normal",
			"uri":"WhiteMetal_normal.jpg"
		},
		{
			"mimeType":"image/jpeg",
			"name":"WhiteMetal_diffuse",
			"uri":"WhiteMetal_diffuse.jpg"
		},
		{
			"mimeType":"image/png",
			"name":"WhiteMetal_roughness",
			"uri":"WhiteMetal_roughness.png"
		}
	],
	"accessors":[
		{
			"bufferView":0,
			"componentType":5126,
			"count":3954,
			"max":[
				1.2625988721847534,
				1,
				1.262598991394043
			],
			"min":[
				-1.2625993490219116,
				-3.263179063796997,
				-1.262598991394043
			],
			"type":"VEC3"
		},
		{
			"bufferView":1,
			"componentType":5126,
			"count":3954,
			"type":"VEC3"
		},
		{
			"bufferView":2,
			"componentType":5126,
			"count":3954,
			"type":"VEC2"
		},
		{
			"bufferView":3,
			"componentType":5126,
			"count":3954,
			"type":"VEC2"
		},
		{
			"bufferView":4,
			"componentType":5123,
			"count":6300,
			"type":"SCALAR"
		},
		{
			"bufferView":5,
			"componentType":5126,
			"count":229,
			"max":[
				0.3093372583389282,
				-3.2535314559936523,
				0.2919278144836426
			],
			"min":[
				-0.27451851963996887,
				-3.534945487976074,
				-0.29192787408828735
			],
			"type":"VEC3"
		},
		{
			"bufferView":6,
			"componentType":5126,
			"count":229,
			"type":"VEC3"
		},
		{
			"bufferView":7,
			"componentType":5126,
			"count":229,
			"type":"VEC2"
		},
		{
			"bufferView":8,
			"componentType":5126,
			"count":229,
			"type":"VEC2"
		},
		{
			"bufferView":9,
			"componentType":5123,
			"count":948,
			"type":"SCALAR"
		}
	],
	"bufferViews":[
		{
			"buffer":0,
			"byteLength":47448,
			"byteOffset":0,
			"target":34962
		},
		{
			"buffer":0,
			"byteLength":47448,
			"byteOffset":47448,
			"target":34962
		},
		{
			"buffer":0,
			"byteLength":31632,
			"byteOffset":94896,
			"target":34962
		},
		{
			"buffer":0,
			"byteLength":31632,
			"byteOffset":126528,
			"target":34962
		},
		{
			"buffer":0,
			"byteLength":12600,
			"byteOffset":158160,
			"target":34963
		},
		{
			"buffer":0,
			"byteLength":2748,
			"byteOffset":170760,
			"target":34962
		},
		{
			"buffer":0,
			"byteLength":2748,
			"byteOffset":173508,
			"target":34962
		},
		{
			"buffer":0,
			"byteLength":1832,
			"byteOffset":176256,
			"target":34962
		},
		{
			"buffer":0,
			"byteLength":1832,
			"byteOffset":178088,
			"target":34962
		},
		{
			"buffer":0,
			"byteLength":1896,
			"byteOffset":179920,
			"target":34963
		}
	],
	"samplers":[
		{
			"magFilter":9729,
			"minFilter":9987
		}
	],
	"buffers":[
		{
			"byteLength":181816,
			"uri":"Salt.bin"
		}
	]
}
