{
	"asset":{
		"generator":"Khronos glTF Blender I/O v4.0.44",
		"version":"2.0"
	},
	"extensionsUsed":[
		"KHR_materials_specular",
		"KHR_materials_ior"
	],
	"scene":0,
	"scenes":[
		{
			"name":"Scene",
			"nodes":[
				0
			]
		}
	],
	"nodes":[
		{
			"mesh":0,
			"name":"Sphere.007",
			"scale":[
				0.20089666545391083,
				0.11142999678850174,
				0.20089666545391083
			],
			"translation":[
				0.13012586534023285,
				0.24338965117931366,
				1.9180958271026611
			]
		}
	],
	"materials":[
		{
			"doubleSided":true,
			"extensions":{
				"KHR_materials_specular":{
					"specularFactor":0.8727272748947144
				},
				"KHR_materials_ior":{
					"ior":1.4500000476837158
				}
			},
			"name":"Material.004",
			"pbrMetallicRoughness":{
				"baseColorFactor":[
					1,
					0.7809719443321228,
					0.7702635526657104,
					1
				],
				"metallicFactor":0
			}
		},
		{
			"doubleSided":true,
			"extensions":{
				"KHR_materials_specular":{
					"specularFactor":0.9545454382896423
				},
				"KHR_materials_ior":{
					"ior":1.4500000476837158
				}
			},
			"name":"Material.002",
			"pbrMetallicRoughness":{
				"baseColorFactor":[
					0.8000000715255737,
					0.030293310061097145,
					0.07770507782697678,
					1
				],
				"metallicFactor":0.5772727131843567,
				"roughnessFactor":0.5
			}
		},
		{
			"doubleSided":true,
			"name":"Wood",
			"normalTexture":{
				"index":0
			},
			"pbrMetallicRoughness":{
				"baseColorTexture":{
					"index":1
				},
				"metallicFactor":0,
				"metallicRoughnessTexture":{
					"index":2
				}
			}
		},
		{
			"doubleSided":true,
			"extensions":{
				"KHR_materials_specular":{
					"specularFactor":0.8727272748947144
				},
				"KHR_materials_ior":{
					"ior":1.4500000476837158
				}
			},
			"name":"Material.005",
			"pbrMetallicRoughness":{
				"baseColorFactor":[
					0.1282157599925995,
					0.06574159115552902,
					0.017570268362760544,
					1
				],
				"metallicFactor":0
			}
		}
	],
	"meshes":[
		{
			"name":"Sphere.007",
			"primitives":[
				{
					"attributes":{
						"POSITION":0,
						"NORMAL":1,
						"TEXCOORD_0":2,
						"TEXCOORD_1":3
					},
					"indices":4,
					"material":0
				},
				{
					"attributes":{
						"POSITION":5,
						"NORMAL":6,
						"TEXCOORD_0":7,
						"TEXCOORD_1":8
					},
					"indices":9,
					"material":1
				},
				{
					"attributes":{
						"POSITION":10,
						"NORMAL":11,
						"TEXCOORD_0":12,
						"TEXCOORD_1":13
					},
					"indices":14,
					"material":2
				},
				{
					"attributes":{
						"POSITION":15,
						"NORMAL":16,
						"TEXCOORD_0":17,
						"TEXCOORD_1":18
					},
					"indices":4,
					"material":3
				}
			]
		}
	],
	"textures":[
		{
			"sampler":0,
			"source":0
		},
		{
			"sampler":0,
			"source":1
		},
		{
			"sampler":0,
			"source":2
		}
	],
	"images":[
		{
			"mimeType":"image/png",
			"name":"Wood04_Normal",
			"uri":"Wood04_Normal.png"
		},
		{
			"mimeType":"image/png",
			"name":"Wood04_Base_Color",
			"uri":"Wood04_Base_Color.png"
		},
		{
			"mimeType":"image/png",
			"name":"Wood04_Roughness",
			"uri":"Wood04_Roughness.png"
		}
	],
	"accessors":[
		{
			"bufferView":0,
			"componentType":5126,
			"count":2236,
			"max":[
				1.149153709411621,
				1.252240777015686,
				1.0251235961914062
			],
			"min":[
				-0.999395489692688,
				-0.5559616088867188,
				-15.832940101623535
			],
			"type":"VEC3"
		},
		{
			"bufferView":1,
			"componentType":5126,
			"count":2236,
			"type":"VEC3"
		},
		{
			"bufferView":2,
			"componentType":5126,
			"count":2236,
			"type":"VEC2"
		},
		{
			"bufferView":3,
			"componentType":5126,
			"count":2236,
			"type":"VEC2"
		},
		{
			"bufferView":4,
			"componentType":5123,
			"count":11520,
			"type":"SCALAR"
		},
		{
			"bufferView":5,
			"componentType":5126,
			"count":960,
			"max":[
				1.8940813541412354,
				1.7811076641082764,
				1.6293339729309082
			],
			"min":[
				-3.1070687770843506,
				-5.633593559265137,
				-17.439268112182617
			],
			"type":"VEC3"
		},
		{
			"bufferView":6,
			"componentType":5126,
			"count":960,
			"type":"VEC3"
		},
		{
			"bufferView":7,
			"componentType":5126,
			"count":960,
			"type":"VEC2"
		},
		{
			"bufferView":8,
			"componentType":5126,
			"count":960,
			"type":"VEC2"
		},
		{
			"bufferView":9,
			"componentType":5123,
			"count":960,
			"type":"SCALAR"
		},
		{
			"bufferView":10,
			"componentType":5126,
			"count":448,
			"max":[
				-0.2362716794013977,
				-1.442442774772644,
				4.119837760925293
			],
			"min":[
				-1.059179425239563,
				-2.926053524017334,
				-24.254552841186523
			],
			"type":"VEC3"
		},
		{
			"bufferView":11,
			"componentType":5126,
			"count":448,
			"type":"VEC3"
		},
		{
			"bufferView":12,
			"componentType":5126,
			"count":448,
			"type":"VEC2"
		},
		{
			"bufferView":13,
			"componentType":5126,
			"count":448,
			"type":"VEC2"
		},
		{
			"bufferView":14,
			"componentType":5123,
			"count":948,
			"type":"SCALAR"
		},
		{
			"bufferView":15,
			"componentType":5126,
			"count":2236,
			"max":[
				0.5291750431060791,
				1.8053033351898193,
				0.8548827171325684
			],
			"min":[
				-2.004847526550293,
				-0.9982101917266846,
				-15.984176635742188
			],
			"type":"VEC3"
		},
		{
			"bufferView":16,
			"componentType":5126,
			"count":2236,
			"type":"VEC3"
		},
		{
			"bufferView":17,
			"componentType":5126,
			"count":2236,
			"type":"VEC2"
		},
		{
			"bufferView":18,
			"componentType":5126,
			"count":2236,
			"type":"VEC2"
		}
	],
	"bufferViews":[
		{
			"buffer":0,
			"byteLength":26832,
			"byteOffset":0,
			"target":34962
		},
		{
			"buffer":0,
			"byteLength":26832,
			"byteOffset":26832,
			"target":34962
		},
		{
			"buffer":0,
			"byteLength":17888,
			"byteOffset":53664,
			"target":34962
		},
		{
			"buffer":0,
			"byteLength":17888,
			"byteOffset":71552,
			"target":34962
		},
		{
			"buffer":0,
			"byteLength":23040,
			"byteOffset":89440,
			"target":34963
		},
		{
			"buffer":0,
			"byteLength":11520,
			"byteOffset":112480,
			"target":34962
		},
		{
			"buffer":0,
			"byteLength":11520,
			"byteOffset":124000,
			"target":34962
		},
		{
			"buffer":0,
			"byteLength":7680,
			"byteOffset":135520,
			"target":34962
		},
		{
			"buffer":0,
			"byteLength":7680,
			"byteOffset":143200,
			"target":34962
		},
		{
			"buffer":0,
			"byteLength":1920,
			"byteOffset":150880,
			"target":34963
		},
		{
			"buffer":0,
			"byteLength":5376,
			"byteOffset":152800,
			"target":34962
		},
		{
			"buffer":0,
			"byteLength":5376,
			"byteOffset":158176,
			"target":34962
		},
		{
			"buffer":0,
			"byteLength":3584,
			"byteOffset":163552,
			"target":34962
		},
		{
			"buffer":0,
			"byteLength":3584,
			"byteOffset":167136,
			"target":34962
		},
		{
			"buffer":0,
			"byteLength":1896,
			"byteOffset":170720,
			"target":34963
		},
		{
			"buffer":0,
			"byteLength":26832,
			"byteOffset":172616,
			"target":34962
		},
		{
			"buffer":0,
			"byteLength":26832,
			"byteOffset":199448,
			"target":34962
		},
		{
			"buffer":0,
			"byteLength":17888,
			"byteOffset":226280,
			"target":34962
		},
		{
			"buffer":0,
			"byteLength":17888,
			"byteOffset":244168,
			"target":34962
		}
	],
	"samplers":[
		{
			"magFilter":9729,
			"minFilter":9987
		}
	],
	"buffers":[
		{
			"byteLength":262056,
			"uri":"SateSaltPepper.bin"
		}
	]
}
