{
	"asset":{
		"generator":"Khronos glTF Blender I/O v4.0.44",
		"version":"2.0"
	},
	"extensionsUsed":[
		"KHR_materials_specular",
		"KHR_materials_ior"
	],
	"scene":0,
	"scenes":[
		{
			"name":"Scene",
			"nodes":[
				0,
				1,
				2,
				3,
				4
			]
		}
	],
	"nodes":[
		{
			"mesh":0,
			"name":"Icosphere",
			"scale":[
				0.41802316904067993,
				0.3391304612159729,
				0.36477333307266235
			],
			"translation":[
				0,
				0,
				1.8382177352905273
			]
		},
		{
			"mesh":1,
			"name":"Sphere.001",
			"scale":[
				0.236939936876297,
				0.13142116367816925,
				0.236939936876297
			],
			"translation":[
				-0.035844966769218445,
				0.20522470772266388,
				-0.09501618891954422
			]
		},
		{
			"mesh":2,
			"name":"Sphere.002",
			"scale":[
				0.236939936876297,
				0.13142116367816925,
				0.236939936876297
			],
			"translation":[
				-0.035844966769218445,
				0.2799827754497528,
				-1.0274816751480103
			]
		},
		{
			"mesh":3,
			"name":"Sphere.003",
			"scale":[
				0.236939936876297,
				0.13142116367816925,
				0.236939936876297
			],
			"translation":[
				-0.035844966769218445,
				0.20522470772266388,
				0.8625561594963074
			]
		},
		{
			"mesh":4,
			"name":"Sphere.004",
			"scale":[
				0.236939936876297,
				0.13142116367816925,
				0.236939936876297
			],
			"translation":[
				-0.035844966769218445,
				0.20522470772266388,
				1.8469464778900146
			]
		}
	],
	"materials":[
		{
			"doubleSided":true,
			"extensions":{
				"KHR_materials_specular":{
					"specularFactor":0.9545454382896423
				},
				"KHR_materials_ior":{
					"ior":1.4500000476837158
				}
			},
			"name":"Material.002",
			"pbrMetallicRoughness":{
				"baseColorFactor":[
					0.8000000715255737,
					0.030293310061097145,
					0.07770507782697678,
					1
				],
				"metallicFactor":0.5772727131843567,
				"roughnessFactor":0.5
			}
		},
		{
			"doubleSided":true,
			"name":"Wood",
			"normalTexture":{
				"index":0
			},
			"pbrMetallicRoughness":{
				"baseColorTexture":{
					"index":1
				},
				"metallicFactor":0,
				"metallicRoughnessTexture":{
					"index":2
				}
			}
		},
		{
			"doubleSided":true,
			"extensions":{
				"KHR_materials_specular":{
					"specularFactor":0.8727272748947144
				},
				"KHR_materials_ior":{
					"ior":1.4500000476837158
				}
			},
			"name":"Material.005",
			"pbrMetallicRoughness":{
				"baseColorFactor":[
					0.1282157599925995,
					0.06574159115552902,
					0.017570268362760544,
					1
				],
				"metallicFactor":0
			}
		}
	],
	"meshes":[
		{
			"name":"Icosphere",
			"primitives":[
				{
					"attributes":{
						"POSITION":0,
						"NORMAL":1,
						"TEXCOORD_0":2,
						"TEXCOORD_1":3
					},
					"indices":4,
					"material":0
				},
				{
					"attributes":{
						"POSITION":5,
						"NORMAL":6,
						"TEXCOORD_0":7,
						"TEXCOORD_1":8
					},
					"indices":9,
					"material":1
				}
			]
		},
		{
			"name":"Sphere.001",
			"primitives":[
				{
					"attributes":{
						"POSITION":10,
						"NORMAL":11,
						"TEXCOORD_0":12
					},
					"indices":13,
					"material":2
				}
			]
		},
		{
			"name":"Sphere.002",
			"primitives":[
				{
					"attributes":{
						"POSITION":14,
						"NORMAL":15,
						"TEXCOORD_0":16
					},
					"indices":13,
					"material":2
				}
			]
		},
		{
			"name":"Sphere.003",
			"primitives":[
				{
					"attributes":{
						"POSITION":17,
						"NORMAL":18,
						"TEXCOORD_0":19
					},
					"indices":13,
					"material":2
				}
			]
		},
		{
			"name":"Sphere.004",
			"primitives":[
				{
					"attributes":{
						"POSITION":20,
						"NORMAL":21,
						"TEXCOORD_0":22
					},
					"indices":13,
					"material":2
				}
			]
		}
	],
	"textures":[
		{
			"sampler":0,
			"source":0
		},
		{
			"sampler":0,
			"source":1
		},
		{
			"sampler":0,
			"source":2
		}
	],
	"images":[
		{
			"mimeType":"image/png",
			"name":"Wood04_Normal",
			"uri":"Wood04_Normal.png"
		},
		{
			"mimeType":"image/png",
			"name":"Wood04_Base_Color",
			"uri":"Wood04_Base_Color.png"
		},
		{
			"mimeType":"image/png",
			"name":"Wood04_Roughness",
			"uri":"Wood04_Roughness.png"
		}
	],
	"accessors":[
		{
			"bufferView":0,
			"componentType":5126,
			"count":958,
			"max":[
				1.221561074256897,
				1.3029133081436157,
				1.1163266897201538
			],
			"min":[
				-1.181930661201477,
				-1.1333656311035156,
				-9.385597229003906
			],
			"type":"VEC3"
		},
		{
			"bufferView":1,
			"componentType":5126,
			"count":958,
			"type":"VEC3"
		},
		{
			"bufferView":2,
			"componentType":5126,
			"count":958,
			"type":"VEC2"
		},
		{
			"bufferView":3,
			"componentType":5126,
			"count":958,
			"type":"VEC2"
		},
		{
			"bufferView":4,
			"componentType":5123,
			"count":960,
			"type":"SCALAR"
		},
		{
			"bufferView":5,
			"componentType":5126,
			"count":448,
			"max":[
				0.197739377617836,
				0.24373799562454224,
				2.48795747756958
			],
			"min":[
				-0.19774003326892853,
				-0.24373812973499298,
				-13.139076232910156
			],
			"type":"VEC3"
		},
		{
			"bufferView":6,
			"componentType":5126,
			"count":448,
			"type":"VEC3"
		},
		{
			"bufferView":7,
			"componentType":5126,
			"count":448,
			"type":"VEC2"
		},
		{
			"bufferView":8,
			"componentType":5126,
			"count":448,
			"type":"VEC2"
		},
		{
			"bufferView":9,
			"componentType":5123,
			"count":948,
			"type":"SCALAR"
		},
		{
			"bufferView":10,
			"componentType":5126,
			"count":559,
			"max":[
				1.149153709411621,
				1.252240777015686,
				1.0251235961914062
			],
			"min":[
				-0.9993954300880432,
				-0.5559616088867188,
				-1.1209290027618408
			],
			"type":"VEC3"
		},
		{
			"bufferView":11,
			"componentType":5126,
			"count":559,
			"type":"VEC3"
		},
		{
			"bufferView":12,
			"componentType":5126,
			"count":559,
			"type":"VEC2"
		},
		{
			"bufferView":13,
			"componentType":5123,
			"count":2880,
			"type":"SCALAR"
		},
		{
			"bufferView":14,
			"componentType":5126,
			"count":559,
			"max":[
				1.149153709411621,
				1.252240777015686,
				1.0251235961914062
			],
			"min":[
				-0.9993954300880432,
				-0.5559616088867188,
				-1.1209290027618408
			],
			"type":"VEC3"
		},
		{
			"bufferView":15,
			"componentType":5126,
			"count":559,
			"type":"VEC3"
		},
		{
			"bufferView":16,
			"componentType":5126,
			"count":559,
			"type":"VEC2"
		},
		{
			"bufferView":17,
			"componentType":5126,
			"count":559,
			"max":[
				1.149153709411621,
				1.252240777015686,
				1.0251235961914062
			],
			"min":[
				-0.9993954300880432,
				-0.5559616088867188,
				-1.1209290027618408
			],
			"type":"VEC3"
		},
		{
			"bufferView":18,
			"componentType":5126,
			"count":559,
			"type":"VEC3"
		},
		{
			"bufferView":19,
			"componentType":5126,
			"count":559,
			"type":"VEC2"
		},
		{
			"bufferView":20,
			"componentType":5126,
			"count":559,
			"max":[
				1.149153709411621,
				1.252240777015686,
				1.0251235961914062
			],
			"min":[
				-0.9993954300880432,
				-0.5559616088867188,
				-1.1209290027618408
			],
			"type":"VEC3"
		},
		{
			"bufferView":21,
			"componentType":5126,
			"count":559,
			"type":"VEC3"
		},
		{
			"bufferView":22,
			"componentType":5126,
			"count":559,
			"type":"VEC2"
		}
	],
	"bufferViews":[
		{
			"buffer":0,
			"byteLength":11496,
			"byteOffset":0,
			"target":34962
		},
		{
			"buffer":0,
			"byteLength":11496,
			"byteOffset":11496,
			"target":34962
		},
		{
			"buffer":0,
			"byteLength":7664,
			"byteOffset":22992,
			"target":34962
		},
		{
			"buffer":0,
			"byteLength":7664,
			"byteOffset":30656,
			"target":34962
		},
		{
			"buffer":0,
			"byteLength":1920,
			"byteOffset":38320,
			"target":34963
		},
		{
			"buffer":0,
			"byteLength":5376,
			"byteOffset":40240,
			"target":34962
		},
		{
			"buffer":0,
			"byteLength":5376,
			"byteOffset":45616,
			"target":34962
		},
		{
			"buffer":0,
			"byteLength":3584,
			"byteOffset":50992,
			"target":34962
		},
		{
			"buffer":0,
			"byteLength":3584,
			"byteOffset":54576,
			"target":34962
		},
		{
			"buffer":0,
			"byteLength":1896,
			"byteOffset":58160,
			"target":34963
		},
		{
			"buffer":0,
			"byteLength":6708,
			"byteOffset":60056,
			"target":34962
		},
		{
			"buffer":0,
			"byteLength":6708,
			"byteOffset":66764,
			"target":34962
		},
		{
			"buffer":0,
			"byteLength":4472,
			"byteOffset":73472,
			"target":34962
		},
		{
			"buffer":0,
			"byteLength":5760,
			"byteOffset":77944,
			"target":34963
		},
		{
			"buffer":0,
			"byteLength":6708,
			"byteOffset":83704,
			"target":34962
		},
		{
			"buffer":0,
			"byteLength":6708,
			"byteOffset":90412,
			"target":34962
		},
		{
			"buffer":0,
			"byteLength":4472,
			"byteOffset":97120,
			"target":34962
		},
		{
			"buffer":0,
			"byteLength":6708,
			"byteOffset":101592,
			"target":34962
		},
		{
			"buffer":0,
			"byteLength":6708,
			"byteOffset":108300,
			"target":34962
		},
		{
			"buffer":0,
			"byteLength":4472,
			"byteOffset":115008,
			"target":34962
		},
		{
			"buffer":0,
			"byteLength":6708,
			"byteOffset":119480,
			"target":34962
		},
		{
			"buffer":0,
			"byteLength":6708,
			"byteOffset":126188,
			"target":34962
		},
		{
			"buffer":0,
			"byteLength":4472,
			"byteOffset":132896,
			"target":34962
		}
	],
	"samplers":[
		{
			"magFilter":9729,
			"minFilter":9987
		}
	],
	"buffers":[
		{
			"byteLength":137368,
			"uri":"Sat%C3%A9Pepper.bin"
		}
	]
}
