{
	"asset":{
		"generator":"Khronos glTF Blender I/O v4.0.44",
		"version":"2.0"
	},
	"extensionsUsed":[
		"KHR_materials_specular",
		"KHR_materials_sheen",
		"KHR_materials_ior"
	],
	"scene":0,
	"scenes":[
		{
			"name":"Scene",
			"nodes":[
				0
			]
		}
	],
	"nodes":[
		{
			"mesh":0,
			"name":"Cylinder",
			"rotation":[
				0,
				-0.7071068286895752,
				-0.7071068286895752,
				0
			],
			"scale":[
				-0.0826599970459938,
				-1.6965899467468262,
				-0.0826599970459938
			]
		}
	],
	"materials":[
		{
			"doubleSided":true,
			"name":"Wood.001",
			"normalTexture":{
				"index":0,
				"texCoord":1
			},
			"pbrMetallicRoughness":{
				"baseColorTexture":{
					"index":1,
					"texCoord":1
				},
				"metallicFactor":0,
				"metallicRoughnessTexture":{
					"index":2,
					"texCoord":1
				}
			}
		},
		{
			"doubleSided":true,
			"extensions":{
				"KHR_materials_specular":{
					"specularColorFactor":[
						2.0,
						2.0,
						2.0
					]
				},
				"KHR_materials_sheen":{
					"sheenColorFactor":[
						1.0,
						1.0,
						1.0
					],
					"sheenRoughnessFactor":0.5
				},
				"KHR_materials_ior":{
					"ior":0
				}
			},
			"name":"Material.001",
			"pbrMetallicRoughness":{
				"baseColorFactor":[
					0,
					0,
					0,
					0
				],
				"metallicFactor":0
			}
		}
	],
	"meshes":[
		{
			"name":"Cylinder",
			"primitives":[
				{
					"attributes":{
						"POSITION":0,
						"NORMAL":1,
						"TEXCOORD_0":2,
						"TEXCOORD_1":3
					},
					"indices":4,
					"material":0
				},
				{
					"attributes":{
						"POSITION":5,
						"NORMAL":6,
						"TEXCOORD_0":7,
						"TEXCOORD_1":8
					},
					"indices":9,
					"material":1
				}
			]
		}
	],
	"textures":[
		{
			"sampler":0,
			"source":0
		},
		{
			"sampler":0,
			"source":1
		},
		{
			"sampler":0,
			"source":2
		}
	],
	"images":[
		{
			"mimeType":"image/png",
			"name":"Wood04_Normal",
			"uri":"Wood04_Normal.png"
		},
		{
			"mimeType":"image/png",
			"name":"Wood04_Base_Color",
			"uri":"Wood04_Base_Color.png"
		},
		{
			"mimeType":"image/png",
			"name":"Wood04_Roughness",
			"uri":"Wood04_Roughness.png"
		}
	],
	"accessors":[
		{
			"bufferView":0,
			"componentType":5126,
			"count":488,
			"max":[
				1.0000088214874268,
				1.7414747476577759,
				1
			],
			"min":[
				-1.0000121593475342,
				-1.6183992624282837,
				-1
			],
			"type":"VEC3"
		},
		{
			"bufferView":1,
			"componentType":5126,
			"count":488,
			"type":"VEC3"
		},
		{
			"bufferView":2,
			"componentType":5126,
			"count":488,
			"type":"VEC2"
		},
		{
			"bufferView":3,
			"componentType":5126,
			"count":488,
			"type":"VEC2"
		},
		{
			"bufferView":4,
			"componentType":5123,
			"count":948,
			"type":"SCALAR"
		},
		{
			"bufferView":5,
			"componentType":5126,
			"count":960,
			"max":[
				6.177687168121338,
				0.9344619512557983,
				4.64993953704834
			],
			"min":[
				-5.977268695831299,
				-1.323493242263794,
				-5.345553398132324
			],
			"type":"VEC3"
		},
		{
			"bufferView":6,
			"componentType":5126,
			"count":960,
			"type":"VEC3"
		},
		{
			"bufferView":7,
			"componentType":5126,
			"count":960,
			"type":"VEC2"
		},
		{
			"bufferView":8,
			"componentType":5126,
			"count":960,
			"type":"VEC2"
		},
		{
			"bufferView":9,
			"componentType":5123,
			"count":960,
			"type":"SCALAR"
		}
	],
	"bufferViews":[
		{
			"buffer":0,
			"byteLength":5856,
			"byteOffset":0,
			"target":34962
		},
		{
			"buffer":0,
			"byteLength":5856,
			"byteOffset":5856,
			"target":34962
		},
		{
			"buffer":0,
			"byteLength":3904,
			"byteOffset":11712,
			"target":34962
		},
		{
			"buffer":0,
			"byteLength":3904,
			"byteOffset":15616,
			"target":34962
		},
		{
			"buffer":0,
			"byteLength":1896,
			"byteOffset":19520,
			"target":34963
		},
		{
			"buffer":0,
			"byteLength":11520,
			"byteOffset":21416,
			"target":34962
		},
		{
			"buffer":0,
			"byteLength":11520,
			"byteOffset":32936,
			"target":34962
		},
		{
			"buffer":0,
			"byteLength":7680,
			"byteOffset":44456,
			"target":34962
		},
		{
			"buffer":0,
			"byteLength":7680,
			"byteOffset":52136,
			"target":34962
		},
		{
			"buffer":0,
			"byteLength":1920,
			"byteOffset":59816,
			"target":34963
		}
	],
	"samplers":[
		{
			"magFilter":9729,
			"minFilter":9987
		}
	],
	"buffers":[
		{
			"byteLength":61736,
			"uri":"SateBlack.bin"
		}
	]
}
