{
	"asset":{
		"generator":"Khronos glTF Blender I/O v4.0.44",
		"version":"2.0"
	},
	"extensionsUsed":[
		"KHR_materials_specular",
		"KHR_materials_ior"
	],
	"scene":0,
	"scenes":[
		{
			"name":"Scene",
			"nodes":[
				0
			]
		}
	],
	"nodes":[
		{
			"mesh":0,
			"name":"Icosphere",
			"scale":[
				0.41802334785461426,
				0.3391300141811371,
				0.36477333307266235
			],
			"translation":[
				0,
				0,
				1.8382177352905273
			]
		}
	],
	"materials":[
		{
			"doubleSided":true,
			"extensions":{
				"KHR_materials_specular":{
					"specularFactor":0.9545454382896423
				},
				"KHR_materials_ior":{
					"ior":1.4500000476837158
				}
			},
			"name":"Material.002",
			"pbrMetallicRoughness":{
				"baseColorFactor":[
					0.8000000715255737,
					0.030293310061097145,
					0.07770507782697678,
					1
				],
				"metallicFactor":0.5772727131843567,
				"roughnessFactor":0.5
			}
		},
		{
			"doubleSided":true,
			"name":"Wood.001",
			"normalTexture":{
				"index":0
			},
			"pbrMetallicRoughness":{
				"baseColorTexture":{
					"index":1
				},
				"metallicFactor":0,
				"metallicRoughnessTexture":{
					"index":2
				}
			}
		}
	],
	"meshes":[
		{
			"name":"Icosphere",
			"primitives":[
				{
					"attributes":{
						"POSITION":0,
						"NORMAL":1,
						"TEXCOORD_0":2,
						"TEXCOORD_1":3
					},
					"indices":4,
					"material":0
				},
				{
					"attributes":{
						"POSITION":5,
						"NORMAL":6,
						"TEXCOORD_0":7,
						"TEXCOORD_1":8
					},
					"indices":9,
					"material":1
				}
			]
		}
	],
	"textures":[
		{
			"sampler":0,
			"source":0
		},
		{
			"sampler":0,
			"source":1
		},
		{
			"sampler":0,
			"source":2
		}
	],
	"images":[
		{
			"mimeType":"image/png",
			"name":"Wood04_Normal",
			"uri":"Wood04_Normal.png"
		},
		{
			"mimeType":"image/png",
			"name":"Wood04_Base_Color",
			"uri":"Wood04_Base_Color.png"
		},
		{
			"mimeType":"image/png",
			"name":"Wood04_Roughness",
			"uri":"Wood04_Roughness.png"
		}
	],
	"accessors":[
		{
			"bufferView":0,
			"componentType":5126,
			"count":958,
			"max":[
				1.221561074256897,
				1.3029133081436157,
				1.1163266897201538
			],
			"min":[
				-1.181930661201477,
				-1.1333656311035156,
				-9.385597229003906
			],
			"type":"VEC3"
		},
		{
			"bufferView":1,
			"componentType":5126,
			"count":958,
			"type":"VEC3"
		},
		{
			"bufferView":2,
			"componentType":5126,
			"count":958,
			"type":"VEC2"
		},
		{
			"bufferView":3,
			"componentType":5126,
			"count":958,
			"type":"VEC2"
		},
		{
			"bufferView":4,
			"componentType":5123,
			"count":960,
			"type":"SCALAR"
		},
		{
			"bufferView":5,
			"componentType":5126,
			"count":448,
			"max":[
				0.197739377617836,
				0.24373799562454224,
				2.48795747756958
			],
			"min":[
				-0.19774003326892853,
				-0.24373812973499298,
				-13.139076232910156
			],
			"type":"VEC3"
		},
		{
			"bufferView":6,
			"componentType":5126,
			"count":448,
			"type":"VEC3"
		},
		{
			"bufferView":7,
			"componentType":5126,
			"count":448,
			"type":"VEC2"
		},
		{
			"bufferView":8,
			"componentType":5126,
			"count":448,
			"type":"VEC2"
		},
		{
			"bufferView":9,
			"componentType":5123,
			"count":948,
			"type":"SCALAR"
		}
	],
	"bufferViews":[
		{
			"buffer":0,
			"byteLength":11496,
			"byteOffset":0,
			"target":34962
		},
		{
			"buffer":0,
			"byteLength":11496,
			"byteOffset":11496,
			"target":34962
		},
		{
			"buffer":0,
			"byteLength":7664,
			"byteOffset":22992,
			"target":34962
		},
		{
			"buffer":0,
			"byteLength":7664,
			"byteOffset":30656,
			"target":34962
		},
		{
			"buffer":0,
			"byteLength":1920,
			"byteOffset":38320,
			"target":34963
		},
		{
			"buffer":0,
			"byteLength":5376,
			"byteOffset":40240,
			"target":34962
		},
		{
			"buffer":0,
			"byteLength":5376,
			"byteOffset":45616,
			"target":34962
		},
		{
			"buffer":0,
			"byteLength":3584,
			"byteOffset":50992,
			"target":34962
		},
		{
			"buffer":0,
			"byteLength":3584,
			"byteOffset":54576,
			"target":34962
		},
		{
			"buffer":0,
			"byteLength":1896,
			"byteOffset":58160,
			"target":34963
		}
	],
	"samplers":[
		{
			"magFilter":9729,
			"minFilter":9987
		}
	],
	"buffers":[
		{
			"byteLength":60056,
			"uri":"Sat%C3%A9.bin"
		}
	]
}
