{
	"asset":{
		"generator":"Khronos glTF Blender I/O v4.0.44",
		"version":"2.0"
	},
	"extensionsUsed":[
		"KHR_materials_specular",
		"KHR_materials_ior"
	],
	"scene":0,
	"scenes":[
		{
			"name":"Scene",
			"nodes":[
				0
			]
		}
	],
	"nodes":[
		{
			"mesh":0,
			"name":"Sphere.003",
			"scale":[
				0.20089666545391083,
				0.11142999678850174,
				0.20089666545391083
			],
			"translation":[
				0.01956316828727722,
				0.07587870210409164,
				0.9160141944885254
			]
		}
	],
	"materials":[
		{
			"doubleSided":true,
			"extensions":{
				"KHR_materials_specular":{
					"specularFactor":0.8727272748947144
				},
				"KHR_materials_ior":{
					"ior":1.4500000476837158
				}
			},
			"name":"Material.004",
			"pbrMetallicRoughness":{
				"baseColorFactor":[
					1,
					0.7809719443321228,
					0.7702635526657104,
					1
				],
				"metallicFactor":0
			}
		},
		{
			"doubleSided":true,
			"extensions":{
				"KHR_materials_specular":{
					"specularFactor":0.9545454382896423
				},
				"KHR_materials_ior":{
					"ior":1.4500000476837158
				}
			},
			"name":"Material.002",
			"pbrMetallicRoughness":{
				"baseColorFactor":[
					0.8000000715255737,
					0.030293310061097145,
					0.07770507782697678,
					1
				],
				"metallicFactor":0.5772727131843567,
				"roughnessFactor":0.5
			}
		},
		{
			"doubleSided":true,
			"name":"Wood",
			"normalTexture":{
				"index":0
			},
			"pbrMetallicRoughness":{
				"baseColorTexture":{
					"index":1
				},
				"metallicFactor":0,
				"metallicRoughnessTexture":{
					"index":2
				}
			}
		}
	],
	"meshes":[
		{
			"name":"Sphere.003",
			"primitives":[
				{
					"attributes":{
						"POSITION":0,
						"NORMAL":1,
						"TEXCOORD_0":2,
						"TEXCOORD_1":3
					},
					"indices":4,
					"material":0
				},
				{
					"attributes":{
						"POSITION":5,
						"NORMAL":6,
						"TEXCOORD_0":7,
						"TEXCOORD_1":8
					},
					"indices":9,
					"material":1
				},
				{
					"attributes":{
						"POSITION":10,
						"NORMAL":11,
						"TEXCOORD_0":12,
						"TEXCOORD_1":13
					},
					"indices":14,
					"material":2
				}
			]
		}
	],
	"textures":[
		{
			"sampler":0,
			"source":0
		},
		{
			"sampler":0,
			"source":1
		},
		{
			"sampler":0,
			"source":2
		}
	],
	"images":[
		{
			"mimeType":"image/png",
			"name":"Wood04_Normal",
			"uri":"Wood04_Normal.png"
		},
		{
			"mimeType":"image/png",
			"name":"Wood04_Base_Color",
			"uri":"Wood04_Base_Color.png"
		},
		{
			"mimeType":"image/png",
			"name":"Wood04_Roughness",
			"uri":"Wood04_Roughness.png"
		}
	],
	"accessors":[
		{
			"bufferView":0,
			"componentType":5126,
			"count":2236,
			"max":[
				1.149155616760254,
				1.252240777015686,
				16.01798439025879
			],
			"min":[
				-0.9993970990180969,
				-1.0347607135772705,
				-1.1209290027618408
			],
			"type":"VEC3"
		},
		{
			"bufferView":1,
			"componentType":5126,
			"count":2236,
			"type":"VEC3"
		},
		{
			"bufferView":2,
			"componentType":5126,
			"count":2236,
			"type":"VEC2"
		},
		{
			"bufferView":3,
			"componentType":5126,
			"count":2236,
			"type":"VEC2"
		},
		{
			"bufferView":4,
			"componentType":5123,
			"count":11520,
			"type":"SCALAR"
		},
		{
			"bufferView":5,
			"componentType":5126,
			"count":960,
			"max":[
				2.217210054397583,
				1.6955008506774902,
				17.3283748626709
			],
			"min":[
				-2.783942937850952,
				-5.7192230224609375,
				-1.7401971817016602
			],
			"type":"VEC3"
		},
		{
			"bufferView":6,
			"componentType":5126,
			"count":960,
			"type":"VEC3"
		},
		{
			"bufferView":7,
			"componentType":5126,
			"count":960,
			"type":"VEC2"
		},
		{
			"bufferView":8,
			"componentType":5126,
			"count":960,
			"type":"VEC2"
		},
		{
			"bufferView":9,
			"componentType":5123,
			"count":960,
			"type":"SCALAR"
		},
		{
			"bufferView":10,
			"componentType":5126,
			"count":448,
			"max":[
				0.08685585856437683,
				-1.528059720993042,
				19.81887435913086
			],
			"min":[
				-0.736052393913269,
				-3.0116751194000244,
				-8.55547046661377
			],
			"type":"VEC3"
		},
		{
			"bufferView":11,
			"componentType":5126,
			"count":448,
			"type":"VEC3"
		},
		{
			"bufferView":12,
			"componentType":5126,
			"count":448,
			"type":"VEC2"
		},
		{
			"bufferView":13,
			"componentType":5126,
			"count":448,
			"type":"VEC2"
		},
		{
			"bufferView":14,
			"componentType":5123,
			"count":948,
			"type":"SCALAR"
		}
	],
	"bufferViews":[
		{
			"buffer":0,
			"byteLength":26832,
			"byteOffset":0,
			"target":34962
		},
		{
			"buffer":0,
			"byteLength":26832,
			"byteOffset":26832,
			"target":34962
		},
		{
			"buffer":0,
			"byteLength":17888,
			"byteOffset":53664,
			"target":34962
		},
		{
			"buffer":0,
			"byteLength":17888,
			"byteOffset":71552,
			"target":34962
		},
		{
			"buffer":0,
			"byteLength":23040,
			"byteOffset":89440,
			"target":34963
		},
		{
			"buffer":0,
			"byteLength":11520,
			"byteOffset":112480,
			"target":34962
		},
		{
			"buffer":0,
			"byteLength":11520,
			"byteOffset":124000,
			"target":34962
		},
		{
			"buffer":0,
			"byteLength":7680,
			"byteOffset":135520,
			"target":34962
		},
		{
			"buffer":0,
			"byteLength":7680,
			"byteOffset":143200,
			"target":34962
		},
		{
			"buffer":0,
			"byteLength":1920,
			"byteOffset":150880,
			"target":34963
		},
		{
			"buffer":0,
			"byteLength":5376,
			"byteOffset":152800,
			"target":34962
		},
		{
			"buffer":0,
			"byteLength":5376,
			"byteOffset":158176,
			"target":34962
		},
		{
			"buffer":0,
			"byteLength":3584,
			"byteOffset":163552,
			"target":34962
		},
		{
			"buffer":0,
			"byteLength":3584,
			"byteOffset":167136,
			"target":34962
		},
		{
			"buffer":0,
			"byteLength":1896,
			"byteOffset":170720,
			"target":34963
		}
	],
	"samplers":[
		{
			"magFilter":9729,
			"minFilter":9987
		}
	],
	"buffers":[
		{
			"byteLength":172616,
			"uri":"SateSalt.bin"
		}
	]
}
