{
    "asset" : {
        "generator" : "Khronos glTF Blender I/O v1.5.17",
        "version" : "2.0"
    },
    "scene" : 0,
    "scenes" : [
        {
            "name" : "Scene",
            "nodes" : [
                0
            ]
        }
    ],
    "nodes" : [
        {
            "mesh" : 0,
            "name" : "spatel",
            "rotation" : [
                0,
                0,
                0,
                -1
            ],
            "scale" : [
                0.00080985031500458717,
                0.016602603614330292,
                0.016914124011993408
            ],
            "translation" : [
                0.07144355773925781,
                0,
                0
            ]
        }
    ],
    "materials" : [
        {
            "doubleSided" : true,
            "name" : "Material.001",
            "pbrMetallicRoughness" : {
                "baseColorFactor" : [
                    0.8000000715255737,
                    0.14985816180706024,
                    0.0071642352268099785,
                    1
                ],
                "metallicFactor" : 0.2181818187236786,
                "roughnessFactor" : 0.2136363685131073
            }
        },
        {
            "doubleSided" : true,
            "name" : "Material",
            "pbrMetallicRoughness" : {
                "baseColorFactor" : [
                    0.15412276983261108,
                    0.15412276983261108,
                    0.15412276983261108,
                    1
                ],
                "metallicFactor" : 0.7363636493682861,
                "roughnessFactor" : 0.09545454382896423
            }
        }
    ],
    "meshes" : [
        {
            "name" : "Cube.001",
            "primitives" : [
                {
                    "attributes" : {
                        "POSITION" : 0,
                        "NORMAL" : 1,
                        "TEXCOORD_0" : 2
                    },
                    "indices" : 3,
                    "material" : 0
                },
                {
                    "attributes" : {
                        "POSITION" : 4,
                        "NORMAL" : 5,
                        "TEXCOORD_0" : 6
                    },
                    "indices" : 7,
                    "material" : 1
                }
            ]
        }
    ],
    "accessors" : [
        {
            "bufferView" : 0,
            "componentType" : 5126,
            "count" : 184,
            "max" : [
                44.5482177734375,
                1,
                1.0000001192092896
            ],
            "min" : [
                -1062.1737060546875,
                -1,
                -1.0000147819519043
            ],
            "type" : "VEC3"
        },
        {
            "bufferView" : 1,
            "componentType" : 5126,
            "count" : 184,
            "type" : "VEC3"
        },
        {
            "bufferView" : 2,
            "componentType" : 5126,
            "count" : 184,
            "type" : "VEC2"
        },
        {
            "bufferView" : 3,
            "componentType" : 5123,
            "count" : 360,
            "type" : "SCALAR"
        },
        {
            "bufferView" : 4,
            "componentType" : 5126,
            "count" : 184,
            "max" : [
                -1021.8199462890625,
                1.13328218460083,
                5.726011753082275
            ],
            "min" : [
                -1412.2606201171875,
                -1.13328218460083,
                -5.72607946395874
            ],
            "type" : "VEC3"
        },
        {
            "bufferView" : 5,
            "componentType" : 5126,
            "count" : 184,
            "type" : "VEC3"
        },
        {
            "bufferView" : 6,
            "componentType" : 5126,
            "count" : 184,
            "type" : "VEC2"
        },
        {
            "bufferView" : 7,
            "componentType" : 5123,
            "count" : 336,
            "type" : "SCALAR"
        }
    ],
    "bufferViews" : [
        {
            "buffer" : 0,
            "byteLength" : 2208,
            "byteOffset" : 0
        },
        {
            "buffer" : 0,
            "byteLength" : 2208,
            "byteOffset" : 2208
        },
        {
            "buffer" : 0,
            "byteLength" : 1472,
            "byteOffset" : 4416
        },
        {
            "buffer" : 0,
            "byteLength" : 720,
            "byteOffset" : 5888
        },
        {
            "buffer" : 0,
            "byteLength" : 2208,
            "byteOffset" : 6608
        },
        {
            "buffer" : 0,
            "byteLength" : 2208,
            "byteOffset" : 8816
        },
        {
            "buffer" : 0,
            "byteLength" : 1472,
            "byteOffset" : 11024
        },
        {
            "buffer" : 0,
            "byteLength" : 672,
            "byteOffset" : 12496
        }
    ],
    "buffers" : [
        {
            "byteLength" : 13168,
            "uri" : "data:application/octet-stream;base64,"
        }
    ]
}
