{
    "asset" : {
        "generator" : "Khronos glTF Blender I/O v1.5.17",
        "version" : "2.0"
    },
    "scene" : 0,
    "scenes" : [
        {
            "name" : "Scene",
            "nodes" : [
                0,
                1,
                2,
                3
            ]
        }
    ],
    "nodes" : [
        {
            "mesh" : 0,
            "name" : "bovenkant",
            "scale" : [
                0.6509380340576172,
                -0.1620839685201645,
                0.6509380340576172
            ]
        },
        {
            "mesh" : 1,
            "name" : "onderkant",
            "rotation" : [
                0,
                0,
                1,
                7.549790126404332e-08
            ],
            "scale" : [
                0.6509380340576172,
                -0.1620839685201645,
                0.6509380340576172
            ],
            "translation" : [
                0,
                0.0011685490608215332,
                0
            ]
        },
        {
            "mesh" : 2,
            "name" : "Sphere",
            "scale" : [
                0.36470067501068115,
                0.20228497684001923,
                0.36470067501068115
            ],
            "translation" : [
                -0.035844966769218445,
                -0.00027336180210113525,
                0.12456399947404861
            ]
        },
        {
            "mesh" : 3,
            "name" : "Sphere.001",
            "scale" : [
                0.36470067501068115,
                0.20228497684001923,
                0.36470067501068115
            ],
            "translation" : [
                -0.035844966769218445,
                0.004382995888590813,
                -0.09501618891954422
            ]
        }
    ],
    "materials" : [
        {
            "doubleSided" : true,
            "name" : "Material.001",
            "pbrMetallicRoughness" : {
                "baseColorFactor" : [
                    0.8000000715255737,
                    0.030293310061097145,
                    0.07770507782697678,
                    1
                ],
                "metallicFactor" : 0.5772727131843567,
                "roughnessFactor" : 0.5
            }
        },
        {
            "doubleSided" : true,
            "name" : "Material.004",
            "pbrMetallicRoughness" : {
                "baseColorFactor" : [
                    1,
                    0.7809719443321228,
                    0.7702635526657104,
                    1
                ],
                "metallicFactor" : 0
            }
        },
        {
            "doubleSided" : true,
            "name" : "Material.005",
            "pbrMetallicRoughness" : {
                "baseColorFactor" : [
                    0.1282157599925995,
                    0.06574159115552902,
                    0.017570268362760544,
                    1
                ],
                "metallicFactor" : 0
            }
        }
    ],
    "meshes" : [
        {
            "name" : "Icosphere",
            "primitives" : [
                {
                    "attributes" : {
                        "POSITION" : 0,
                        "NORMAL" : 1,
                        "TEXCOORD_0" : 2
                    },
                    "indices" : 3,
                    "material" : 0
                }
            ]
        },
        {
            "name" : "Icosphere.001",
            "primitives" : [
                {
                    "attributes" : {
                        "POSITION" : 4,
                        "NORMAL" : 5,
                        "TEXCOORD_0" : 6
                    },
                    "indices" : 3,
                    "material" : 0
                }
            ]
        },
        {
            "name" : "Sphere",
            "primitives" : [
                {
                    "attributes" : {
                        "POSITION" : 7,
                        "NORMAL" : 8,
                        "TEXCOORD_0" : 9
                    },
                    "indices" : 10,
                    "material" : 1
                }
            ]
        },
        {
            "name" : "Sphere.001",
            "primitives" : [
                {
                    "attributes" : {
                        "POSITION" : 11,
                        "NORMAL" : 12,
                        "TEXCOORD_0" : 13
                    },
                    "indices" : 10,
                    "material" : 2
                }
            ]
        }
    ],
    "accessors" : [
        {
            "bufferView" : 0,
            "componentType" : 5126,
            "count" : 210,
            "max" : [
                0.9510578513145447,
                0.009015101939439774,
                0.9999999403953552
            ],
            "min" : [
                -0.9510578513145447,
                -1,
                -0.9999999403953552
            ],
            "type" : "VEC3"
        },
        {
            "bufferView" : 1,
            "componentType" : 5126,
            "count" : 210,
            "type" : "VEC3"
        },
        {
            "bufferView" : 2,
            "componentType" : 5126,
            "count" : 210,
            "type" : "VEC2"
        },
        {
            "bufferView" : 3,
            "componentType" : 5123,
            "count" : 264,
            "type" : "SCALAR"
        },
        {
            "bufferView" : 4,
            "componentType" : 5126,
            "count" : 210,
            "max" : [
                0.9510578513145447,
                0.009015101939439774,
                0.9999999403953552
            ],
            "min" : [
                -0.9510578513145447,
                -1,
                -0.9999999403953552
            ],
            "type" : "VEC3"
        },
        {
            "bufferView" : 5,
            "componentType" : 5126,
            "count" : 210,
            "type" : "VEC3"
        },
        {
            "bufferView" : 6,
            "componentType" : 5126,
            "count" : 210,
            "type" : "VEC2"
        },
        {
            "bufferView" : 7,
            "componentType" : 5126,
            "count" : 559,
            "max" : [
                1.149153709411621,
                1.252240777015686,
                1.0251235961914062
            ],
            "min" : [
                -0.9993954300880432,
                -0.5559616088867188,
                -1.1209290027618408
            ],
            "type" : "VEC3"
        },
        {
            "bufferView" : 8,
            "componentType" : 5126,
            "count" : 559,
            "type" : "VEC3"
        },
        {
            "bufferView" : 9,
            "componentType" : 5126,
            "count" : 559,
            "type" : "VEC2"
        },
        {
            "bufferView" : 10,
            "componentType" : 5123,
            "count" : 2880,
            "type" : "SCALAR"
        },
        {
            "bufferView" : 11,
            "componentType" : 5126,
            "count" : 559,
            "max" : [
                1.149153709411621,
                1.252240777015686,
                1.0251235961914062
            ],
            "min" : [
                -0.9993954300880432,
                -0.5559616088867188,
                -1.1209290027618408
            ],
            "type" : "VEC3"
        },
        {
            "bufferView" : 12,
            "componentType" : 5126,
            "count" : 559,
            "type" : "VEC3"
        },
        {
            "bufferView" : 13,
            "componentType" : 5126,
            "count" : 559,
            "type" : "VEC2"
        }
    ],
    "bufferViews" : [
        {
            "buffer" : 0,
            "byteLength" : 2520,
            "byteOffset" : 0
        },
        {
            "buffer" : 0,
            "byteLength" : 2520,
            "byteOffset" : 2520
        },
        {
            "buffer" : 0,
            "byteLength" : 1680,
            "byteOffset" : 5040
        },
        {
            "buffer" : 0,
            "byteLength" : 528,
            "byteOffset" : 6720
        },
        {
            "buffer" : 0,
            "byteLength" : 2520,
            "byteOffset" : 7248
        },
        {
            "buffer" : 0,
            "byteLength" : 2520,
            "byteOffset" : 9768
        },
        {
            "buffer" : 0,
            "byteLength" : 1680,
            "byteOffset" : 12288
        },
        {
            "buffer" : 0,
            "byteLength" : 6708,
            "byteOffset" : 13968
        },
        {
            "buffer" : 0,
            "byteLength" : 6708,
            "byteOffset" : 20676
        },
        {
            "buffer" : 0,
            "byteLength" : 4472,
            "byteOffset" : 27384
        },
        {
            "buffer" : 0,
            "byteLength" : 5760,
            "byteOffset" : 31856
        },
        {
            "buffer" : 0,
            "byteLength" : 6708,
            "byteOffset" : 37616
        },
        {
            "buffer" : 0,
            "byteLength" : 6708,
            "byteOffset" : 44324
        },
        {
            "buffer" : 0,
            "byteLength" : 4472,
            "byteOffset" : 51032
        }
    ],
    "buffers" : [
        {
            "byteLength" : 55504,
            "uri" : "data:application/octet-stream;base64,"
        }
    ]
}
